{
    "asset" : {
        "generator" : "Khronos glTF Blender I/O v1.6.16",
        "version" : "2.0"
    },
    "scene" : 0,
    "scenes" : [
        {
            "name" : "Scene",
            "nodes" : [
                0
            ]
        }
    ],
    "nodes" : [
        {
            "mesh" : 0,
            "name" : "M",
            "scale" : [
                3.8183906078338623,
                3.8183906078338623,
                3.8183906078338623
            ],
            "translation" : [
                2.731311321258545,
                1.743764877319336,
                14.170498847961426
            ]
        }
    ],
    "materials" : [
        {
            "doubleSided" : true,
            "name" : "Material.001",
            "pbrMetallicRoughness" : {}
        }
    ],
    "meshes" : [
        {
            "name" : "M",
            "primitives" : [
                {
                    "attributes" : {
                        "POSITION" : 0,
                        "NORMAL" : 1
                    },
                    "indices" : 2,
                    "material" : 0
                }
            ]
        }
    ],
    "accessors" : [
        {
            "bufferView" : 0,
            "componentType" : 5126,
            "count" : 3960,
            "max" : [
                3.793957233428955,
                14.643304824829102,
                2.570441246032715
            ],
            "min" : [
                -2.2765371799468994,
                -1.236433506011963,
                -6.159076690673828
            ],
            "type" : "VEC3"
        },
        {
            "bufferView" : 1,
            "componentType" : 5126,
            "count" : 3960,
            "type" : "VEC3"
        },
        {
            "bufferView" : 2,
            "componentType" : 5123,
            "count" : 3987,
            "type" : "SCALAR"
        }
    ],
    "bufferViews" : [
        {
            "buffer" : 0,
            "byteLength" : 47520,
            "byteOffset" : 0
        },
        {
            "buffer" : 0,
            "byteLength" : 47520,
            "byteOffset" : 47520
        },
        {
            "buffer" : 0,
            "byteLength" : 7974,
            "byteOffset" : 95040
        }
    ],
    "buffers" : [
        {
            "byteLength" : 103016,
            "uri" : "data:application/octet-stream;base64,"
        }
    ]
}
